<?xml version="1.0" encoding="utf-8"?>
<!-- Generator: Adobe Illustrator 26.0.0, SVG Export Plug-In . SVG Version: 6.00 Build 0)  -->
<svg version="1.1" id="Layer_1" xmlns="http://www.w3.org/2000/svg" xmlns:xlink="http://www.w3.org/1999/xlink" x="0px" y="0px"
	 viewBox="0 0 892 612" style="enable-background:new 0 0 892 612;" xml:space="preserve">
<style type="text/css">
	.st0{fill:#263238;}
	.st1{fill:#FFFFFF;}
	.st2{fill:#F68B7B;}
	.st3{fill:#F05452;}
	.st4{opacity:0.2;enable-background:new    ;}
	.st5{fill:#3976AF;}
	.st6{opacity:0.4;enable-background:new    ;}
	.st7{opacity:0.3;enable-background:new    ;}
	.st8{opacity:0.6;fill:#3976AF;enable-background:new    ;}
	.st9{opacity:0.3;fill:#3976AF;enable-background:new    ;}
</style>
<g id="Device">
	<g>
		<g>
			<g>
				<g>
					<g>
						<g>
							<path class="st0" d="M519,487.7l-145.6-0.1c-17.5,0-31.7-13.1-31.7-29.3V121.8c0-16.1,14.2-29.3,31.7-29.3L519,92.6
								c17.5,0,31.7,13.1,31.7,29.3l-0.1,336.5C550.6,474.6,536.4,487.7,519,487.7z"/>
						</g>
					</g>
					<g>
						<g>
							<path class="st1" d="M518.9,104.7h-28.2c-3.8,0-6.9,2.9-6.9,6.6v4.7c0,3.7-3.1,6.6-6.9,6.6l-55-0.1c-3.8,0-6.9-2.9-6.9-6.6
								v-4.7c0-3.7-3.1-6.6-6.9-6.6h-10h-24.7c-12.3,0-22.2,9.2-22.2,20.5l-0.1,328.5c0,11.3,10,20.5,22.1,20.5l145.3,0.1
								c12.3,0,22.2-9.2,22.2-20.5l0.1-328.5C541,113.9,531.1,104.7,518.9,104.7z"/>
						</g>
					</g>
				</g>
			</g>
		</g>
		<g>
			<g>
				<g>
					<path class="st1" d="M440.9,176.9h-0.5v-2.5c0-2.9,2.6-5.3,5.8-5.3s5.8,2.4,5.8,5.3v2h-0.5v-2c0-2.7-2.3-4.8-5.3-4.8
						c-2.9,0-5.3,2.1-5.3,4.8V176.9L440.9,176.9z"/>
				</g>
				<g>
					<g>
						<g>
							<path class="st1" d="M446.2,186.1c-1.3,0-2.3-1-2.3-2.1c0-1.2,1.1-2.1,2.3-2.1s2.3,1,2.3,2.1
								C448.6,185.2,447.4,186.1,446.2,186.1z M446.2,182.3c-1.1,0-1.7,0.8-1.7,1.6c0,0.9,0.9,1.6,1.7,1.6c1,0,1.7-0.8,1.7-1.6
								C448,183.1,447.3,182.3,446.2,182.3z"/>
						</g>
						<g>
							<rect x="445.9" y="185.8" class="st1" width="0.5" height="3.9"/>
						</g>
					</g>
				</g>
			</g>
		</g>
	</g>
</g>
<g id="Character_1_">
	<g>
		<path class="st2" d="M646,244c1.4,2.3,2.7,4.6,3.9,6.8c1.2,2.3,2.4,4.7,3.5,7.1c2.2,4.8,4.1,9.7,5.5,14.9c0.2,0.6,0.3,1.3,0.5,2
			l0.2,1l0.1,0.5l0.1,0.8c0.3,2.2,0.1,4-0.3,5.6c-0.8,3.1-2.1,5.7-3.4,8.1c-2.7,4.8-6,8.8-9.7,12.7l-4.6-3.5
			c2.3-4.3,4.5-8.8,6.2-13.1c0.8-2.1,1.4-4.3,1.6-6.2c0.1-0.9,0-1.6-0.1-1.9l-0.4-1.3c-0.2-0.5-0.3-1.1-0.5-1.6
			c-1.6-4.4-3.6-8.8-5.7-13.1c-2.1-4.3-4.5-8.8-6.8-12.9L646,244z"/>
		<path class="st2" d="M643.2,298.6l-5,2.7l5.7,6.7c0,0,3.6-2.4,3.8-6.2L643.2,298.6z"/>
		<polygon class="st2" points="631.4,305.4 637.6,310.3 643.9,308 638.2,301.3 		"/>
		<path class="st0" d="M610.4,208.4c-0.1,0.6-0.5,1-1,1c-0.4-0.1-0.6-0.6-0.5-1.2c0.1-0.6,0.5-1,1-1S610.5,207.8,610.4,208.4z"/>
		<path class="st3" d="M609.9,209.4c0,0-2.1,3.2-4,4.6c0.9,1.2,2.8,1.2,2.8,1.2L609.9,209.4z"/>
		<path class="st2" d="M607.9,230.8l0.1-7.1l9.4,1.2c0,0-0.1,6.2-5.4,7.9L607.9,230.8z"/>
		<polygon class="st2" points="610.7,218.5 617.3,220.4 617.4,224.7 608,223.6 		"/>
		<path class="st4" d="M617.3,220.4l-6.6-1.9l-1.3,2.5c0.1,4.2,2.7,7.7,6.2,9.2c1.8-2.4,1.9-5.4,1.9-5.4L617.3,220.4z"/>
		<path class="st0" d="M613.3,205.4c0.1,0,0.2,0,0.3-0.1s0.1-0.3,0-0.5c-1.4-1.5-3-1.2-3.1-1.2c-0.2,0-0.3,0.2-0.3,0.4
			c0.1,0.2,0.2,0.3,0.4,0.3l0,0c0.1,0,1.4-0.2,2.5,1C613.1,205.4,613.2,205.4,613.3,205.4z"/>
		<path class="st2" d="M627.2,219.4c-1.1,5.6-1.8,13.3,2.2,17.1c0,0-1.5,5.7-11.9,5.7c-11.4,0-5.5-5-5.5-5c4.8-1.5,4.7-6.9,3.6-11.2
			L627.2,219.4z"/>
		<path class="st5" d="M631.5,240.2c1-1.4,1-6-0.1-6.8c-1.8-1.3-9.3-1.6-19.4,0.8c1.1,4.4-1.2,6.7-1.2,6.7L631.5,240.2z"/>
		<path class="st5" d="M665.6,498.7c-0.8,0.1-1.5,0.2-1.9-0.1c-0.1-0.1-0.3-0.4-0.2-0.8c0.1-0.3,0.2-0.4,0.5-0.5
			c1-0.5,3.4,0.5,3.5,0.5s0.1,0.1,0.1,0.1c0,0.1-0.1,0.1-0.1,0.1C667.1,498.3,666.3,498.6,665.6,498.7z M664.3,497.5
			c-0.1,0-0.1,0.1-0.2,0.1c-0.1,0.1-0.2,0.1-0.3,0.3c-0.1,0.3,0,0.4,0.1,0.5c0.4,0.3,1.9,0,3-0.4C666.2,497.7,665,497.4,664.3,497.5
			z"/>
		<path class="st5" d="M667.4,498.1L667.4,498.1c-1-0.3-2.8-1.6-2.8-2.5c0-0.1,0.1-0.4,0.5-0.6c0.3-0.1,0.5-0.1,0.8,0.1
			c1,0.5,1.6,2.7,1.7,2.7c0,0.1,0,0.1-0.1,0.2C667.5,498.1,667.5,498.1,667.4,498.1z M665.2,495.4L665.2,495.4
			c-0.3,0.1-0.3,0.2-0.3,0.2c0,0.5,1.2,1.6,2.1,2c-0.2-0.6-0.8-1.8-1.4-2.1C665.6,495.4,665.4,495.4,665.2,495.4z"/>
		<path class="st5" d="M609,500c-1,0-1.9-0.1-2.3-0.5c-0.1-0.1-0.2-0.4,0-0.8c0.1-0.2,0.3-0.3,0.5-0.4c1.3-0.3,4,1.2,4,1.2
			s0.1,0.1,0.1,0.2s-0.1,0.1-0.1,0.1C610.9,499.9,609.9,500,609,500z M607.8,498.5c-0.1,0-0.3,0-0.3,0.1c-0.1,0.1-0.3,0.1-0.3,0.3
			c-0.1,0.2-0.1,0.3-0.1,0.4c0.3,0.5,2.3,0.5,3.7,0.3C610,499.2,608.7,498.5,607.8,498.5z"/>
		<path class="st5" d="M611.3,499.8L611.3,499.8c-1-0.4-2.8-2.1-2.7-2.9c0-0.2,0.2-0.5,0.7-0.5c0.3-0.1,0.7,0.1,1,0.3
			c1,0.8,1.2,2.9,1.2,2.9c0,0.1,0,0.1-0.1,0.1C611.4,499.8,611.3,499.8,611.3,499.8z M609.4,496.7
			C609.3,496.7,609.3,496.7,609.4,496.7c-0.4,0-0.4,0.1-0.4,0.2c-0.1,0.5,1.2,1.8,2.1,2.4c-0.1-0.6-0.3-1.8-1-2.4
			C609.9,496.8,609.7,496.7,609.4,496.7z"/>
		<polygon class="st2" points="619.8,499.6 612.1,499.6 611.3,481.9 618.9,481.9 		"/>
		<polygon class="st2" points="676,496.1 668.4,497.7 661,481.2 668.4,479.6 		"/>
		<path class="st0" d="M667.7,496.9l8.4-1.8c0.3-0.1,0.6,0.1,0.8,0.3l2.9,6.4c0.3,0.7-0.1,1.4-0.8,1.6c-2.9,0.6-4.4,0.8-8.1,1.5
			c-2.3,0.5-7.4,1.7-10.5,2.4c-3.1,0.7-4.2-2.3-3-2.9c5.5-2.5,7.8-4.7,9.3-6.8C666.9,497.3,667.3,497.1,667.7,496.9z"/>
		<path class="st0" d="M612.1,498.7h8.4c0.3,0,0.6,0.2,0.7,0.5l1.5,6.8c0.1,0.7-0.4,1.4-1.1,1.4c-3-0.1-7.4-0.2-11.2-0.2
			c-4.4,0-8.3,0.3-13.5,0.3c-3.1,0-4-3.1-2.7-3.5c6-1.3,10.9-1.4,16.1-4.7C610.9,499,611.5,498.7,612.1,498.7z"/>
		<g>
			<path class="st5" d="M643.1,238.2c7.2,1.6,13.1,20,13.1,20l-14.4,11c0,0-5.3-5-7.7-14.2C631.7,245.4,635.7,236.5,643.1,238.2z"/>
			<path class="st6" d="M643.1,238.2c7.2,1.6,13.1,20,13.1,20l-14.4,11c0,0-5.3-5-7.7-14.2C631.7,245.4,635.7,236.5,643.1,238.2z"/>
		</g>
		<path class="st2" d="M605.3,260c-1.8,1.9-3.6,3.6-5.4,5.4c-0.9,0.9-1.8,1.7-2.8,2.6l-1.4,1.3l-0.3,0.3c-0.2,0.1-0.4,0.3-0.6,0.5
			c-0.5,0.3-1,0.8-2.1,1.2c-0.6,0.2-1.3,0.5-2.7,0.5c-0.6,0-1.5-0.1-2.3-0.4s-1.6-0.8-2.2-1.4c-1.2-1.2-1.5-2.1-1.7-2.8
			c-0.2-0.7-0.3-1.2-0.3-1.6c-0.1-0.8,0-1.4,0-1.9c0.1-0.5,0.1-1,0.2-1.4c0.3-1.7,0.8-3,1.2-4.4c0.5-1.4,1-2.6,1.7-3.9
			c0.7-1.4,1.4-2.4,2.1-3.6c2.7-4.5,5.8-8.6,9.2-12.5c3.4-3.8,7.1-7.4,11.2-10.6l4,4.1c-2.8,3.8-5.6,7.8-8.1,11.8s-4.9,8.1-7,12.3
			c-0.5,1-1,2.1-1.4,3c-0.4,1-0.8,1.9-1,2.9c-0.3,1-0.5,2-0.6,2.7c0,0.2-0.1,0.3-0.1,0.4s0,0.1,0-0.1c0-0.1,0-0.3-0.1-0.7
			c-0.1-0.4-0.3-1.1-1.2-2.1c-0.4-0.4-1.1-0.9-1.8-1.2c-0.7-0.3-1.4-0.3-1.8-0.3c-1,0-1.4,0.2-1.8,0.3c-0.5,0.2-0.5,0.3-0.5,0.3
			l0.4-0.4l1.3-1.2l2.6-2.5c1.7-1.6,3.4-3.4,5.1-5L605.3,260z"/>
		<path class="st4" d="M636.9,251.7c3.9,3.8,5.2,10.9,5.5,17l-0.6,0.5c0,0-5.3-5-7.7-14.2c-0.1-0.5-0.3-1.2-0.3-1.7L636.9,251.7z"/>
		<g>
			<path class="st5" d="M597.7,245.9c-1.6,8.3-2.5,25.3,2,58.9h41c0.3-6.3-3.7-37,2.4-66.6c0,0-7.1-1.4-13.7-1.7
				c-5.2-0.3-12.8-0.4-17.4,0c-1.9,0.2-3.8,0.5-5.5,0.8C602,238,598.5,241.5,597.7,245.9z"/>
			<path class="st6" d="M597.7,245.9c-1.6,8.3-2.5,25.3,2,58.9h41c0.3-6.3-3.7-37,2.4-66.6c0,0-7.1-1.4-13.7-1.7
				c-5.2-0.3-12.8-0.4-17.4,0c-1.9,0.2-3.8,0.5-5.5,0.8C602,238,598.5,241.5,597.7,245.9z"/>
		</g>
		<path class="st4" d="M604,258.1l-7.4-1.8c-0.2,4.5-0.3,10.1,0.1,16.9C600.1,269.4,604.4,263.3,604,258.1z"/>
		<g>
			<polygon class="st4" points="611.3,481.9 611.7,491.1 619.4,491.1 618.9,481.9 			"/>
			<polygon class="st4" points="668.4,479.6 661,481.2 664.8,489.7 672.3,488.1 			"/>
		</g>
		<path class="st2" d="M630.9,211.2c-2,7.3-2.7,11.8-7.3,14.8c-6.8,4.6-15.3-0.7-15.5-8.5c-0.2-7,3-17.9,10.9-19.3
			C626.7,196.7,632.8,203.8,630.9,211.2z"/>
		<path class="st0" d="M613.7,211.4c-0.3-1-2.1-8.6-0.5-10.5c1.6-2,19.7-0.5,22.4,2.1c4.4,4.4,1.4,8.3-3.5,13.3
			c-3.7,3.8-3.8,8.1-5.7,8.7c-3.2,1.1-8.3,0.1-9.2-3.4C616.1,218.2,613.7,211.4,613.7,211.4z"/>
		<path class="st0" d="M633.4,194.3c-6.4-2.7-18.4,0.3-24.9-1.3c-0.2,3.4,1.8,8.8,8.3,10.2c0,0,9.2,1.8,16.4,1.5
			C640.2,204.5,638.9,196.7,633.4,194.3z"/>
		<path class="st0" d="M634.4,203.2c0,0,4,0.5,6.8-1.3C642.4,204.8,635.8,205.6,634.4,203.2z"/>
		<path class="st2" d="M617.2,211.7c-0.1,2-1,3.8-2.1,5.1c-1.6,1.8-3.4,0.7-3.7-1.6c-0.3-2,0.3-5.4,2.3-6.4
			C615.7,207.9,617.3,209.5,617.2,211.7z"/>
		<path class="st5" d="M614.2,304.8c0,0,8.7,58.5,13.5,80.5c5.2,24,33.3,103.5,33.3,103.5l13.7-2.9c0,0-19.6-64.8-24-98.3
			c-3.4-25.8-10-82.6-10-82.6h-26.5V304.8z"/>
		<path class="st0" d="M657.7,484.1c-0.1,0,2.5,4.9,2.5,4.9l15.4-3.4l-1.3-4.7L657.7,484.1z"/>
		<path class="st7" d="M619.8,325.7c10.1,2,9,39.4,7.8,58.7c-2.9-13.6-7.1-39.8-10.1-58.5C618.1,325.6,618.9,325.5,619.8,325.7z"/>
		<path class="st5" d="M599.7,304.8c0,0-1,57.3-0.2,80.6c0.9,24.3,9.4,103.8,9.4,103.8h13c0,0,0.5-78.1,1-102
			c0.6-26,3.8-82.5,3.8-82.5L599.7,304.8L599.7,304.8z"/>
		<path class="st0" d="M606.3,484.1c-0.1,0,0.8,5.4,0.8,5.4h15.8l0.4-4.8L606.3,484.1z"/>
		<g>
			<path class="st5" d="M613.7,248.4c3.7,9.9-17.9,21.6-17.9,21.6l-9.3-12c0,0,6.2-12.4,13.9-18C609.8,233,611,240.9,613.7,248.4z"
				/>
			<path class="st6" d="M613.7,248.4c3.7,9.9-17.9,21.6-17.9,21.6l-9.3-12c0,0,6.2-12.4,13.9-18C609.8,233,611,240.9,613.7,248.4z"
				/>
		</g>
	</g>
</g>
<g id="Thinking">
	<g>
		<ellipse class="st5" cx="698.3" cy="148.2" rx="39.3" ry="25.1"/>
		<path class="st1" d="M684.1,160.8c-2.2,0-4.3-0.7-6.2-1.9c-2.5-1.7-4.1-4.2-4.7-7.3c-1-5.7,2.8-11.3,8.4-12.6l0,0
			c4.6-1,9.3,0.9,11.8,4.9l25.3-5.2c2.1-0.4,4.1,0.8,4.7,2.7c0.3,1,0.1,2.1-0.5,2.9c-0.5,0.9-1.4,1.5-2.5,1.7l-0.7,0.1
			c-0.2,0.1-0.3,0.1-0.5,0.3c-0.1,0.2-0.1,0.4-0.1,0.5l0.4,1.2c0.3,0.8,0,1.6-0.7,2.1c-0.5,0.3-0.9,0.9-1,1.5
			c-0.1,0.8-0.6,1.4-1.3,1.5l-0.5,0.1c-0.7,0.1-1.4-0.2-1.8-0.9c-0.5-0.8-1.4-1.2-2.3-1c-0.9,0.2-1.6,0.9-1.7,1.8
			c-0.1,0.8-0.6,1.4-1.3,1.5l-0.5,0.1c-0.7,0.1-1.4-0.2-1.8-0.9c-0.3-0.5-0.9-1-1.5-1c-0.8-0.1-1.4-0.8-1.4-1.6l-0.1-1.2
			c0-0.2-0.1-0.4-0.3-0.5c-0.1-0.1-0.3-0.1-0.5-0.1l-8,1.6c-0.7,4.6-4.1,8.2-8.6,9.2C685.6,160.7,684.9,160.8,684.1,160.8z
			 M681.9,140.1c-5.1,1.2-8.4,6.2-7.5,11.4c0.5,2.7,1.9,5,4.2,6.5s4.9,2.1,7.6,1.5c4.2-0.9,7.4-4.3,7.9-8.6l0.1-0.4l8.8-1.8
			c0.5-0.1,1,0,1.4,0.3s0.7,0.8,0.7,1.3l0.1,1.2c0,0.3,0.2,0.6,0.5,0.6c1,0.1,1.8,0.7,2.3,1.6c0.1,0.2,0.3,0.4,0.6,0.3l0.5-0.1
			c0.3-0.1,0.4-0.3,0.5-0.5c0.1-1.4,1.2-2.5,2.5-2.7s2.7,0.3,3.4,1.5c0.1,0.2,0.3,0.4,0.6,0.3l0.5-0.1c0.3-0.1,0.4-0.3,0.5-0.5
			c0.1-1,0.7-1.8,1.5-2.3c0.3-0.1,0.3-0.5,0.2-0.8l-0.4-1.2c-0.2-0.5-0.1-1,0.1-1.5c0.3-0.5,0.7-0.8,1.2-0.9l0.7-0.1
			c0.8-0.1,1.4-0.6,1.8-1.2c0.4-0.6,0.5-1.4,0.3-2.1c-0.3-1.4-1.8-2.3-3.4-1.9l-26,5.3l-0.2-0.3
			C690.5,141.1,686.2,139.2,681.9,140.1L681.9,140.1z M684.1,156.8c-1.4,0-2.7-0.4-3.8-1.2c-1.6-1-2.6-2.6-3-4.4
			c-0.4-1.8,0-3.7,1-5.3s2.6-2.6,4.4-3c1.8-0.4,3.7,0,5.3,1s2.6,2.6,3,4.4c0.4,1.8,0,3.7-1,5.3s-2.6,2.6-4.4,3l0,0
			C685.1,156.8,684.6,156.8,684.1,156.8z M684.2,143.9c-0.4,0-0.8,0.1-1.2,0.1c-1.5,0.3-2.9,1.2-3.7,2.5c-0.9,1.3-1.2,2.9-0.8,4.4
			c0.3,1.5,1.2,2.9,2.5,3.7c1.3,0.9,2.9,1.2,4.4,0.8l0,0c1.6-0.3,2.9-1.2,3.7-2.5c0.9-1.3,1.2-2.9,0.8-4.4s-1.2-2.9-2.5-3.8
			C686.4,144.2,685.3,143.9,684.2,143.9z"/>
		<ellipse class="st8" cx="666.3" cy="179.7" rx="12.9" ry="8.2"/>
		<ellipse class="st9" cx="645.8" cy="187.9" rx="5.3" ry="3.4"/>
	</g>
</g>
</svg>
